<?xml version="1.0" standalone="no"?>
<!DOCTYPE svg PUBLIC "-//W3C//DTD SVG 20010904//EN"
 "http://www.w3.org/TR/2001/REC-SVG-20010904/DTD/svg10.dtd">
<svg version="1.0" xmlns="http://www.w3.org/2000/svg"
 width="769.000000pt" height="769.000000pt" viewBox="0 0 769.000000 769.000000"
 preserveAspectRatio="xMidYMid meet">
<metadata>
Created by potrace 1.14, written by Peter Selinger 2001-2017
</metadata>
<g transform="translate(0.000000,769.000000) scale(0.100000,-0.100000)"
fill="#000000" stroke="none">
<path d="M210 7681 c-69 -21 -149 -90 -186 -161 -18 -34 -19 -149 -22 -3655
-2 -4041 -9 -3670 70 -3760 22 -25 64 -58 92 -73 l51 -27 3630 0 3630 0 53 29
c60 33 101 76 134 139 l23 42 0 3630 0 3630 -27 51 c-34 64 -105 128 -165 148
-42 14 -396 16 -3652 15 -1983 0 -3617 -4 -3631 -8z m2557 -1598 c29 -70 1755
-4478 1760 -4496 5 -16 -11 -17 -267 -15 l-273 3 -281 717 -281 718 -906 0
c-716 0 -908 -3 -912 -12 -3 -7 -127 -328 -276 -713 -150 -385 -275 -703 -279
-707 -5 -5 -126 -7 -270 -6 l-261 3 888 2255 c488 1240 890 2263 894 2273 6
15 26 17 227 17 l221 0 16 -37z m4403 23 c0 -2 -48 -97 -106 -210 l-106 -206
-1594 0 c-877 0 -1594 -2 -1594 -4 0 -2 373 -927 829 -2057 l829 -2054 -235
-3 c-130 -1 -238 0 -240 2 -7 7 -1803 4518 -1803 4528 0 4 905 8 2010 8 1106
0 2010 -2 2010 -4z m-437 -936 l-108 -210 -1188 3 -1189 2 -85 185 c-46 102
-89 195 -94 208 l-9 22 1390 0 1390 0 -107 -210z m-233 -567 c0 -5 -47 -107
-103 -228 l-104 -220 -855 -3 -855 -2 -91 220 c-51 121 -92 225 -92 230 0 7
364 10 1050 10 578 0 1050 -3 1050 -7z"/>
<path d="M2491 5405 c-60 -234 -146 -480 -420 -1200 -148 -390 -269 -711 -267
-712 2 -2 329 -2 728 -1 l725 3 -284 755 c-254 678 -353 957 -425 1205 l-24
80 -33 -130z"/>
</g>
</svg>
